<svg xmlns="http://www.w3.org/2000/svg" viewBox="0 0 1200 630">
  <defs>
    <linearGradient id="bg" x1="0%" y1="0%" x2="100%" y2="100%">
      <stop offset="0%" style="stop-color:#0a0a0a"/>
      <stop offset="100%" style="stop-color:#1a1a2e"/>
    </linearGradient>
    <linearGradient id="accent" x1="0%" y1="0%" x2="100%" y2="0%">
      <stop offset="0%" style="stop-color:#ff4d00"/>
      <stop offset="100%" style="stop-color:#ff8c00"/>
    </linearGradient>
  </defs>
  <rect width="1200" height="630" fill="url(#bg)"/>
  <g opacity="0.12" fill="#ffffff">
    <rect x="120" y="120" width="180" height="14" rx="7"/>
    <rect x="120" y="150" width="130" height="14" rx="7"/>
    <rect x="120" y="180" width="160" height="14" rx="7"/>
    <rect x="900" y="330" width="180" height="14" rx="7"/>
    <rect x="900" y="360" width="130" height="14" rx="7"/>
    <rect x="900" y="390" width="160" height="14" rx="7"/>
  </g>
  <circle cx="600" cy="300" r="170" fill="none" stroke="url(#accent)" stroke-width="3" opacity="0.3"/>
  <circle cx="600" cy="300" r="110" fill="none" stroke="#ffffff" stroke-width="2" opacity="0.2"/>
  <circle cx="600" cy="300" r="55" fill="none" stroke="url(#accent)" stroke-width="2" opacity="0.5"/>
  <path d="M560 300 L590 330 L645 265" fill="none" stroke="url(#accent)" stroke-width="5" stroke-linecap="round" stroke-linejoin="round"/>
  <circle cx="645" cy="265" r="7" fill="#ff8c00"/>
  <g fill="#ffffff" font-family="Arial, sans-serif" font-weight="800" text-anchor="middle">
    <text x="600" y="470" font-size="38" fill="url(#accent)">SEO for Kenyan Businesses</text>
    <text x="600" y="512" font-size="18" fill="#888">On-page • Technical • Local Search</text>
  </g>
  <g opacity="0.15">
    <circle cx="200" cy="150" r="40" fill="#ff4d00"/>
    <circle cx="1000" cy="500" r="30" fill="#ff8c00"/>
    <circle cx="150" cy="500" r="25" fill="#ff4d00"/>
    <circle cx="1050" cy="130" r="35" fill="#ff8c00"/>
  </g>
</svg>
