<svg xmlns="http://www.w3.org/2000/svg" viewBox="0 0 1200 630">
  <defs>
    <linearGradient id="bg" x1="0%" y1="0%" x2="100%" y2="100%">
      <stop offset="0%" style="stop-color:#0a0a0a"/>
      <stop offset="100%" style="stop-color:#1a1a2e"/>
    </linearGradient>
    <linearGradient id="accent" x1="0%" y1="0%" x2="100%" y2="0%">
      <stop offset="0%" style="stop-color:#ff4d00"/>
      <stop offset="100%" style="stop-color:#ff8c00"/>
    </linearGradient>
  </defs>
  <rect width="1200" height="630" fill="url(#bg)"/>
  <g>
    <rect x="130" y="120" width="170" height="110" rx="8" fill="url(#accent)" opacity="0.22"/>
    <rect x="320" y="120" width="170" height="110" rx="8" fill="#ffffff" opacity="0.1"/>
    <rect x="510" y="120" width="170" height="110" rx="8" fill="#ff4d00" opacity="0.15"/>
    <rect x="700" y="120" width="170" height="110" rx="8" fill="#ffffff" opacity="0.1"/>
    <rect x="890" y="120" width="170" height="110" rx="8" fill="#ffffff" opacity="0.1"/>
    <rect x="130" y="250" width="170" height="110" rx="8" fill="#ffffff" opacity="0.1"/>
    <rect x="320" y="250" width="170" height="110" rx="8" fill="#ff4d00" opacity="0.15"/>
    <rect x="510" y="250" width="170" height="110" rx="8" fill="#ffffff" opacity="0.1"/>
    <rect x="700" y="250" width="170" height="110" rx="8" fill="#ff4d00" opacity="0.15"/>
    <rect x="890" y="250" width="170" height="110" rx="8" fill="url(#accent)" opacity="0.22"/>
  </g>
  <g font-family="Arial" font-weight="800" text-anchor="middle" font-size="40">
    <text x="215" y="190" fill="#ff8c00">01</text>
    <text x="405" y="190" fill="#ffffff">02</text>
    <text x="595" y="190" fill="#ff8c00">03</text>
    <text x="785" y="190" fill="#ffffff">04</text>
    <text x="975" y="190" fill="#ffffff">05</text>
    <text x="215" y="320" fill="#ffffff">06</text>
    <text x="405" y="320" fill="#ff8c00">07</text>
    <text x="595" y="320" fill="#ffffff">08</text>
    <text x="785" y="320" fill="#ff8c00">09</text>
    <text x="975" y="320" fill="#ff4d00">10</text>
  </g>
  <g font-family="Arial, sans-serif" font-weight="800" text-anchor="middle">
    <text x="600" y="450" font-size="40" fill="url(#accent)">10 Features Every Business Website Should Have</text>
    <text x="600" y="495" font-size="18" fill="#cccccc">Speed • Contact • M-Pesa • Local Search • Trust • Handover</text>
    <text x="600" y="535" font-size="16" fill="#888">Plus a 10-minute audit you can run yourself</text>
  </g>
</svg>